<svg xmlns="http://www.w3.org/2000/svg" viewBox="0 0 1600 900"><defs><linearGradient id="s" x1="0" y1="0" x2="0" y2="1"><stop stop-color="#b8d8eb"/><stop offset="1" stop-color="#eef4f5"/></linearGradient></defs><rect width="1600" height="900" fill="url(#s)"/><rect y="650" width="1600" height="250" fill="#789575"/><g transform="translate(420 120)"><rect width="300" height="575" rx="6" fill="#ded8cd"/><rect x="315" y="80" width="245" height="495" rx="6" fill="#c8c6bf"/><rect x="575" y="20" width="245" height="555" rx="6" fill="#eee9df"/><g fill="#2f4a5b"><path d="M30 50h240v40H30zM30 125h240v40H30zM30 200h240v40H30zM30 275h240v40H30zM30 350h240v40H30zM30 425h240v40H30z"/><path d="M340 120h190v40H340zM340 200h190v40H340zM340 280h190v40H340zM340 360h190v40H340z"/><path d="M605 70h185v42H605zM605 150h185v42H605zM605 230h185v42H605zM605 310h185v42H605zM605 390h185v42H605z"/></g></g><g fill="#365a3b"><circle cx="250" cy="690" r="70"/><circle cx="1290" cy="680" r="78"/><circle cx="1420" cy="715" r="52"/></g><rect x="100" y="782" width="1400" height="42" rx="21" fill="#d8d3c8"/><text x="65" y="92" font-family="Arial" font-size="36" font-weight="700" fill="#163146">PROJECT LIVE • DEMO</text></svg>