<svg xmlns="http://www.w3.org/2000/svg" viewBox="0 0 1200 675"><defs><linearGradient id="g" x1="0" x2="1"><stop stop-color="#3f0d12"/><stop offset=".5" stop-color="#7f1d1d"/><stop offset="1" stop-color="#2b0a0a"/></linearGradient></defs><rect width="1200" height="675" fill="url(#g)"/><path d="M0 0h300q-20 220 80 675H0ZM1200 0H900q20 220-80 675h380Z" fill="#991b1b"/><path d="M120 0h170q-30 230 40 675H110Q180 260 120 0ZM1080 0H910q30 230-40 675h220Q1020 260 1080 0Z" fill="#b91c1c" opacity=".8"/><g fill="#f4e7c5" stroke="#fef3c7" stroke-width="8"><path d="M420 255q70-70 140 0v120q-70 70-140 0z"/><path d="M640 255q70-70 140 0v120q-70 70-140 0z"/></g><g stroke="#7f1d1d" stroke-width="10" fill="none"><path d="M455 300q35-28 70 0M675 300q35-28 70 0"/><path d="M455 345q35 38 70 0M675 345q35-38 70 0"/></g><text x="600" y="585" fill="#fff" text-anchor="middle" font-family="Arial" font-size="42" font-weight="700">תיאטרון והצגות</text></svg>