<svg xmlns="http://www.w3.org/2000/svg" viewBox="0 0 1600 900"><defs><linearGradient id="bg" x1="0" y1="0" x2="1" y2="1"><stop stop-color="#2b145f"/><stop offset=".52" stop-color="#6b2fa8"/><stop offset="1" stop-color="#ef7b38"/></linearGradient></defs><rect width="1600" height="900" fill="url(#bg)"/><g opacity=".25" fill="#fff"><circle cx="220" cy="180" r="90"/><circle cx="1360" cy="180" r="110"/><circle cx="1180" cy="690" r="120"/></g><g transform="translate(420 180)"><rect x="325" y="70" width="26" height="340" rx="13" fill="#20243a"/><ellipse cx="338" cy="70" rx="78" ry="52" fill="#1e2439"/><ellipse cx="338" cy="62" rx="60" ry="35" fill="#d7d9df"/><rect x="300" y="390" width="76" height="32" rx="16" fill="#20243a"/><path d="M250 410q90 80 180 0" fill="none" stroke="#20243a" stroke-width="20"/></g><g transform="translate(980 245)"><ellipse cx="0" cy="100" rx="155" ry="55" fill="#e6c892"/><path d="M-135 115q20 250 135 315 115-65 135-315z" fill="#c8814a"/><ellipse cx="0" cy="115" rx="135" ry="45" fill="#6b3a2a"/><path d="M-115 210q115 70 230 0M-90 300q90 60 180 0" fill="none" stroke="#f1d4a7" stroke-width="14"/></g><g fill="#ffd84d"><path d="M230 360q110-100 220 0v110q-110 100-220 0z"/><circle cx="340" cy="415" r="28" fill="#2d1d53"/></g><g stroke="#fff" stroke-width="18" stroke-linecap="round"><path d="M180 675l120-75"/><path d="M260 735l130-80"/><path d="M1180 640l130-75"/><path d="M1240 720l120-70"/></g></svg>