<svg xmlns="http://www.w3.org/2000/svg" viewBox="0 0 1600 900"><defs><linearGradient id="g" x1="0" y1="0" x2="1" y2="1"><stop stop-color="#183a66"/><stop offset=".55" stop-color="#2b7a8b"/><stop offset="1" stop-color="#e7a45b"/></linearGradient><radialGradient id="r"><stop stop-color="#fff" stop-opacity=".8"/><stop offset="1" stop-color="#fff" stop-opacity="0"/></radialGradient></defs><rect width="1600" height="900" fill="url(#g)"/><circle cx="1260" cy="150" r="250" fill="url(#r)" opacity=".45"/><rect x="230" y="190" width="1140" height="480" rx="42" fill="#f6f3ed" opacity=".96"/><rect x="300" y="245" width="740" height="340" rx="20" fill="#e6edf3"/><g fill="#294f72"><rect x="1110" y="355" width="120" height="250" rx="14"/><rect x="1060" y="330" width="220" height="34" rx="17"/></g><circle cx="1170" cy="290" r="52" fill="#d7b08b"/><path d="M1115 455q55-80 110 0v105h-110z" fill="#233b5a"/><g fill="#fff" opacity=".75"><circle cx="410" cy="725" r="55"/><circle cx="600" cy="725" r="55"/><circle cx="790" cy="725" r="55"/><circle cx="980" cy="725" r="55"/></g><g stroke="#77a6bc" stroke-width="20" fill="none"><path d="M380 470h560"/><path d="M380 410h430"/><path d="M380 350h500"/></g></svg>